<mxfile host="app.diagrams.net" modified="2023-04-15T10:07:33.558Z" agent="Mozilla/5.0 (Windows NT 10.0; Win64; x64) AppleWebKit/537.36 (KHTML, like Gecko) Chrome/111.0.0.0 Safari/537.36" etag="K-sp9C8yT-LKFvQhlOdo" version="21.1.8" type="device">
  <diagram name="Page-1" id="qs2JIT4y6Hok80FsiwDR">
    <mxGraphModel dx="2954" dy="1148" grid="1" gridSize="10" guides="1" tooltips="1" connect="1" arrows="1" fold="1" page="1" pageScale="1" pageWidth="827" pageHeight="1169" math="0" shadow="0">
      <root>
        <mxCell id="0" />
        <mxCell id="1" parent="0" />
        <mxCell id="KX4v5PoYc2F0jPbXT0ds-1" value="Collaborator" style="shape=umlActor;verticalLabelPosition=bottom;verticalAlign=top;html=1;" vertex="1" parent="1">
          <mxGeometry x="40" y="280" width="100" height="190" as="geometry" />
        </mxCell>
        <mxCell id="KX4v5PoYc2F0jPbXT0ds-2" value="Add a task" style="ellipse;whiteSpace=wrap;html=1;" vertex="1" parent="1">
          <mxGeometry x="280" y="100" width="140" height="70" as="geometry" />
        </mxCell>
        <mxCell id="KX4v5PoYc2F0jPbXT0ds-3" value="Remote a task" style="ellipse;whiteSpace=wrap;html=1;" vertex="1" parent="1">
          <mxGeometry x="280" y="230" width="140" height="70" as="geometry" />
        </mxCell>
        <mxCell id="KX4v5PoYc2F0jPbXT0ds-4" value="List tasks" style="ellipse;whiteSpace=wrap;html=1;" vertex="1" parent="1">
          <mxGeometry x="280" y="370" width="140" height="70" as="geometry" />
        </mxCell>
        <mxCell id="KX4v5PoYc2F0jPbXT0ds-5" value="Sort tasks" style="ellipse;whiteSpace=wrap;html=1;" vertex="1" parent="1">
          <mxGeometry x="280" y="540" width="140" height="70" as="geometry" />
        </mxCell>
        <mxCell id="KX4v5PoYc2F0jPbXT0ds-6" value="Sort per name" style="ellipse;whiteSpace=wrap;html=1;" vertex="1" parent="1">
          <mxGeometry x="560" y="480" width="140" height="70" as="geometry" />
        </mxCell>
        <mxCell id="KX4v5PoYc2F0jPbXT0ds-7" value="Sort per creation date" style="ellipse;whiteSpace=wrap;html=1;" vertex="1" parent="1">
          <mxGeometry x="560" y="620" width="140" height="70" as="geometry" />
        </mxCell>
        <mxCell id="KX4v5PoYc2F0jPbXT0ds-8" value="" style="endArrow=open;endFill=1;endSize=12;html=1;rounded=0;entryX=0;entryY=0.5;entryDx=0;entryDy=0;" edge="1" parent="1" target="KX4v5PoYc2F0jPbXT0ds-2">
          <mxGeometry width="160" relative="1" as="geometry">
            <mxPoint x="140" y="380" as="sourcePoint" />
            <mxPoint x="300" y="380" as="targetPoint" />
          </mxGeometry>
        </mxCell>
        <mxCell id="KX4v5PoYc2F0jPbXT0ds-9" value="" style="endArrow=open;endFill=1;endSize=12;html=1;rounded=0;entryX=-0.021;entryY=0.6;entryDx=0;entryDy=0;entryPerimeter=0;" edge="1" parent="1" target="KX4v5PoYc2F0jPbXT0ds-3">
          <mxGeometry width="160" relative="1" as="geometry">
            <mxPoint x="140" y="380" as="sourcePoint" />
            <mxPoint x="300" y="380" as="targetPoint" />
          </mxGeometry>
        </mxCell>
        <mxCell id="KX4v5PoYc2F0jPbXT0ds-10" value="" style="endArrow=open;endFill=1;endSize=12;html=1;rounded=0;entryX=0;entryY=0.5;entryDx=0;entryDy=0;" edge="1" parent="1" target="KX4v5PoYc2F0jPbXT0ds-4">
          <mxGeometry width="160" relative="1" as="geometry">
            <mxPoint x="140" y="380" as="sourcePoint" />
            <mxPoint x="300" y="380" as="targetPoint" />
          </mxGeometry>
        </mxCell>
        <mxCell id="KX4v5PoYc2F0jPbXT0ds-11" value="" style="endArrow=open;endFill=1;endSize=12;html=1;rounded=0;entryX=0;entryY=0.5;entryDx=0;entryDy=0;" edge="1" parent="1" target="KX4v5PoYc2F0jPbXT0ds-5">
          <mxGeometry width="160" relative="1" as="geometry">
            <mxPoint x="140" y="380" as="sourcePoint" />
            <mxPoint x="300" y="380" as="targetPoint" />
          </mxGeometry>
        </mxCell>
        <mxCell id="KX4v5PoYc2F0jPbXT0ds-12" value="" style="endArrow=open;endFill=1;endSize=12;html=1;rounded=0;entryX=0;entryY=0.5;entryDx=0;entryDy=0;" edge="1" parent="1" target="KX4v5PoYc2F0jPbXT0ds-6">
          <mxGeometry width="160" relative="1" as="geometry">
            <mxPoint x="420" y="574.5" as="sourcePoint" />
            <mxPoint x="580" y="574.5" as="targetPoint" />
          </mxGeometry>
        </mxCell>
        <mxCell id="KX4v5PoYc2F0jPbXT0ds-13" value="" style="endArrow=open;endFill=1;endSize=12;html=1;rounded=0;entryX=0;entryY=0.5;entryDx=0;entryDy=0;" edge="1" parent="1" target="KX4v5PoYc2F0jPbXT0ds-7">
          <mxGeometry width="160" relative="1" as="geometry">
            <mxPoint x="420" y="574.5" as="sourcePoint" />
            <mxPoint x="580" y="574.5" as="targetPoint" />
          </mxGeometry>
        </mxCell>
      </root>
    </mxGraphModel>
  </diagram>
</mxfile>
